<?xml version="1.0" standalone="no"?>
<!DOCTYPE svg PUBLIC "-//W3C//DTD SVG 20010904//EN"
 "http://www.w3.org/TR/2001/REC-SVG-20010904/DTD/svg10.dtd">
<svg version="1.0" xmlns="http://www.w3.org/2000/svg"
 width="700.000000pt" height="700.000000pt" viewBox="0 0 700.000000 700.000000"
 preserveAspectRatio="xMidYMid meet">
<metadata>
Created by potrace 1.11, written by Peter Selinger 2001-2013
</metadata>
<g transform="translate(0.000000,700.000000) scale(0.100000,-0.100000)"
fill="#000000" stroke="none">
<path d="M0 3500 l0 -3500 3500 0 3500 0 0 3500 0 3500 -3500 0 -3500 0 0
-3500z m5780 1746 c0 -3 -85 -375 -190 -828 -104 -452 -190 -828 -190 -835 0
-10 101 -13 495 -13 l495 0 0 -285 0 -285 -565 0 c-311 0 -565 -3 -565 -7 -1
-17 -277 -1203 -281 -1208 -3 -2 -206 -7 -451 -11 -433 -7 -446 -7 -451 12 -3
10 -61 285 -128 609 -66 325 -123 593 -126 598 -2 4 -139 7 -304 7 -164 0
-299 -3 -299 -7 0 -17 -218 -1234 -221 -1237 -2 -2 -202 -5 -443 -7 l-440 -4
-157 605 c-87 333 -160 615 -164 628 l-5 22 -585 0 -585 0 0 285 0 285 510 0
c281 0 510 3 509 8 0 4 -93 365 -207 802 l-207 795 170 6 c93 4 259 7 367 8
197 1 198 1 203 -21 9 -40 335 -1588 335 -1593 0 -3 103 -5 230 -5 l230 0 5
23 c3 12 68 379 145 816 77 437 141 796 143 797 1 0 203 4 449 8 421 6 447 5
452 -11 3 -10 77 -371 165 -803 89 -432 163 -795 166 -808 l5 -22 228 2 227 3
154 832 155 833 331 3 c181 1 345 3 363 5 17 1 32 0 32 -2z"/>
<path d="M3466 4378 c-9 -51 -45 -253 -79 -448 l-63 -355 92 -3 c51 -1 137 -1
192 0 l98 3 -86 420 c-106 513 -96 475 -119 475 -16 0 -21 -15 -35 -92z"/>
<path d="M2430 2978 c1 -33 105 -517 113 -525 16 -16 27 24 67 252 23 132 44
252 47 268 l6 27 -117 0 c-114 0 -116 0 -116 -22z"/>
<path d="M4410 2993 c0 -4 23 -121 52 -260 36 -175 56 -253 65 -253 7 0 15 10
18 23 14 61 85 455 85 475 0 21 -3 22 -110 22 -60 0 -110 -3 -110 -7z"/>
</g>
</svg>
