<svg xmlns="http://www.w3.org/2000/svg" class="instagram" viewBox="0 0 18 18">
  <path d="M16.3125,0 L1.6875,0 C0.759375,0 0,0.759375 0,1.6875 L0,16.3125 C0,17.240625 0.759375,18 1.6875,18 L16.3125,18 C17.240625,18 18,17.240625 18,16.3125 L18,1.6875 C18,0.759375 17.240625,0 16.3125,0 Z M12.375,2.8125 C12.375,2.503125 12.628125,2.25 12.9375,2.25 L15.1875,2.25 C15.496875,2.25 15.75,2.503125 15.75,2.8125 L15.75,5.0625 C15.75,5.371875 15.496875,5.625 15.1875,5.625 L12.9375,5.625 C12.628125,5.625 12.375,5.371875 12.375,5.0625 L12.375,2.8125 Z M9,5.625 C10.8632813,5.625 12.375,7.13671875 12.375,9 C12.375,10.8632813 10.8632813,12.375 9,12.375 C7.13671875,12.375 5.625,10.8632813 5.625,9 C5.625,7.13671875 7.13671875,5.625 9,5.625 Z M15.75,15.1875 L15.75,15.1875 C15.75,15.496875 15.496875,15.75 15.1875,15.75 L2.8125,15.75 C2.503125,15.75 2.25,15.496875 2.25,15.1875 L2.25,15.1875 L2.25,7.875 L3.4875,7.875 C3.41367188,8.23710938 3.375,8.61328125 3.375,9 C3.375,12.1078125 5.8921875,14.625 9,14.625 C12.1078125,14.625 14.625,12.1078125 14.625,9 C14.625,8.61328125 14.5863281,8.23710938 14.5125,7.875 L15.75,7.875 L15.75,15.1875 Z"/>
</svg>
