<?xml version="1.0" encoding="UTF-8"?>
<svg width="28px" height="28px" class="mailCheckSVG" viewBox="0 0 28 28" version="1.1" xmlns="http://www.w3.org/2000/svg" xmlns:xlink="http://www.w3.org/1999/xlink">
    <g id="Page-1" stroke="none" stroke-width="1" fill="none" fill-rule="evenodd">
        <g id="Desktop" transform="translate(-706.000000, -313.000000)" fill="" fill-rule="nonzero">
            <path d="M710.274275,337.070081 C706.634974,333.555082 705.175426,328.349899 706.45661,323.455149 C707.737794,318.560398 711.560328,314.737816 716.455018,313.456616 C721.349707,312.175416 726.554825,313.634982 730.06978,317.274328 C735.375258,322.767564 735.299382,331.499337 729.899244,336.899543 C724.499106,342.299749 715.767442,342.375625 710.274275,337.070081 Z M728.095829,335.096106 C732.472024,330.719856 732.472024,323.624553 728.095829,319.248304 C723.719634,314.872054 716.624421,314.872054 712.248226,319.248304 C707.872031,323.624553 707.872031,330.719856 712.248226,335.096106 C716.624421,339.472355 723.719634,339.472355 728.095829,335.096106 Z M715.552143,326.178217 L718.772062,329.412177 L724.791912,323.392252 L726.751863,325.380227 L718.772062,333.332128 L713.592192,328.152192 L715.552143,326.164217 L715.552143,326.178217 Z" id="Shape"></path>
        </g>
    </g>
</svg>