<svg xmlns="http://www.w3.org/2000/svg" class="soundcloud" viewBox="0 0 33 15">
  <path d="M28.7448047,6.25852734 C28.1619551,6.25852734 27.6056602,6.37196484 27.0991875,6.57615234 C26.7606152,2.89078711 23.5449199,-5.68434189e-14 19.622625,-5.68434189e-14 C18.6627246,-5.68434189e-14 17.7315059,0.181435547 16.9053457,0.488683594 C16.5843691,0.607986328 16.5,0.731027344 16.5,0.969375 L16.5,13.9474629 C16.5,14.1977344 16.7010938,14.4061758 16.955168,14.4307324 C16.9659961,14.4318281 28.6706836,14.4375 28.7465449,14.4375 C31.0959902,14.4375 33,12.6065156 33,10.3481426 C33,8.08976953 31.0943145,6.25852734 28.7448047,6.25852734 L28.7448047,6.25852734 Z M12.890625,14.4375 L13.921875,14.4375 L14.4375,7.21166016 L13.921875,0 L12.890625,0 L12.375,7.21166016 L12.890625,14.4375 Z M9.796875,14.4375 L8.765625,14.4375 L8.25,9.19262695 L8.765625,4.125 L9.796875,4.125 L10.3125,9.28125 L9.796875,14.4375 Z M4.640625,14.4375 L5.671875,14.4375 L6.1875,10.3125 L5.671875,6.1875 L4.640625,6.1875 L4.125,10.3125 L4.640625,14.4375 Z M0.515625,12.375 L1.546875,12.375 L2.0625,10.3125 L1.546875,8.25 L0.515625,8.25 L0,10.3125 L0.515625,12.375 Z"/>
</svg>
