<svg xmlns="http://www.w3.org/2000/svg" class="spotify" viewBox="0 0 18 18">
  <path d="M9,0 C4.05,0 0,4.05 0,9 C0,13.95 4.05,18 9,18 C13.95,18 18,13.95 18,9 C18,4.05 13.9957031,0 9,0 Z M13.1414062,13.0042969 C12.9621094,13.275 12.6457031,13.3628906 12.375,13.1835938 C10.2585937,11.8792969 7.60429687,11.6085937 4.45429687,12.3292969 C4.13789062,12.4207031 3.87070312,12.1957031 3.77929687,11.925 C3.68789062,11.6085937 3.91289062,11.3414062 4.18359375,11.25 C7.60429687,10.4835937 10.575,10.8 12.9128906,12.2414062 C13.2292969,12.375 13.275,12.7335938 13.1414062,13.0042969 Z M14.2207031,10.5292969 C13.9957031,10.8457031 13.5914063,10.9792969 13.275,10.7542969 C10.8457031,9.27070313 7.15429688,8.82070312 4.32070313,9.72070312 C3.96210938,9.81210938 3.55429688,9.62929687 3.46640625,9.27070313 C3.375,8.91210938 3.5578125,8.50429687 3.91640625,8.41640625 C7.2,7.425 11.25,7.92070312 14.0414063,9.6328125 C14.3085938,9.76640625 14.4457031,10.2164063 14.2207031,10.5292969 L14.2207031,10.5292969 Z M14.3085937,8.00859375 C11.4292969,6.3 6.61289062,6.1171875 3.8671875,6.975 C3.4171875,7.10859375 2.9671875,6.84140625 2.83359375,6.43359375 C2.7,5.98359375 2.9671875,5.53359375 3.375,5.4 C6.57070312,4.45429688 11.8335937,4.63359375 15.1664062,6.61640625 C15.5707031,6.84140625 15.7078125,7.3828125 15.4828125,7.78710937 C15.2542969,8.1 14.7164062,8.23359375 14.3085937,8.00859375 Z"/>
</svg>
