<svg xmlns="http://www.w3.org/2000/svg" viewBox="0 0 20 21" class="p3Icon">
  <path fill="#2170B0" d="M728.31,10.017158 L724.57,6.267158 C724.454107,4.60203994 725.386929,3.04075146 726.90814,2.35375299 C728.429351,1.66675453 730.217429,1.99924903 731.39,3.187158 C732.573879,4.36255821 732.903946,6.14928366 732.218142,7.67007574 C731.532339,9.19086782 729.974697,10.1263281 728.31,10.017158 L728.31,10.017158 Z M714.41,17.317158 L723.61,8.127158 L726.44,10.957158 L717.24,20.157158 L714.42,17.317158 L714.41,17.317158 Z M713.01,20.147158 L715.12,18.027158 L716.54,19.447158 L714.42,21.567158 L713,20.147158 L713.01,20.147158 Z M722.56,17.017158 L724.56,15.017158 L724.56,22.017158 L722.56,22.017158 L722.56,17.017158 Z"
    transform="translate(-713 -2)" />
</svg>
          