<svg xmlns="http://www.w3.org/2000/svg" class="twitter" viewBox="0 0 20 17">
  <path d="M20,1.92 C19.2663415,2.24780488 18.4741463,2.46634146 17.6468293,2.56390244 C18.4936585,2.05658537 19.1414634,1.25268293 19.4497561,0.296585366 C18.657561,0.764878049 17.7795122,1.10829268 16.8468293,1.29170732 C16.097561,0.495609756 15.0321951,0 13.8536585,0 C11.5902439,0 9.75609756,1.83414634 9.75609756,4.09756098 C9.75609756,4.41756098 9.79121951,4.7297561 9.86146341,5.0302439 C6.45463415,4.85853659 3.43414634,3.22731707 1.41268293,0.745365854 C1.06146341,1.3502439 0.858536585,2.05658537 0.858536585,2.80585366 C0.858536585,4.22634146 1.5804878,5.48292683 2.68097561,6.21658537 C2.0097561,6.19707317 1.37756098,6.0097561 0.823414634,5.70536585 C0.823414634,5.72097561 0.823414634,5.7404878 0.823414634,5.75609756 C0.823414634,7.74243902 2.23609756,9.40097561 4.11317073,9.77560976 C3.7697561,9.86926829 3.40682927,9.92 3.03219512,9.92 C2.76682927,9.92 2.51317073,9.89268293 2.2595122,9.84585366 C2.78243902,11.4731707 4.29658537,12.6595122 6.08780488,12.6946341 C4.68292683,13.795122 2.91902439,14.4507317 0.995121951,14.4507317 C0.663414634,14.4507317 0.339512195,14.4312195 0.0156097561,14.3921951 C1.83414634,15.5590244 3.98829268,16.2341463 6.30243902,16.2341463 C13.8419512,16.2341463 17.9668293,9.98634146 17.9668293,4.5697561 C17.9668293,4.3902439 17.9629268,4.21463415 17.955122,4.03902439 C18.755122,3.46536585 19.4497561,2.74341463 20,1.92 Z"/>
</svg>
